<svg width="40" height="40" viewBox="0 0 40 40" fill="none" xmlns="http://www.w3.org/2000/svg">
<path d="M17.7887 3.91862C17.9052 3.67188 18.0218 3.43197 18.1419 3.19727C18.1744 3.13607 18.25 2.97135 18.3486 2.75521C18.514 2.39323 18.9352 1.4681 19.1132 1.19336C19.2705 1.07129 19.372 0.880534 19.372 0.666667C19.372 0.297852 19.0739 0 18.7054 0C18.4394 0 17.8147 0 14.844 2.36458C9.05986 6.96322 2.87268 14.6986 2.08785 21.6133C1.71513 24.9014 2.52795 27.8239 4.50387 30.3021C6.94527 33.3626 10.262 34.6348 13.4967 34.6348C15.6813 34.6348 17.8278 34.0527 19.6432 33.0514C20.7106 37.0719 24.4274 40 28.6653 40C33.8118 40 37.9987 35.8135 37.9987 30.6667C37.9987 25.5199 33.8118 21.3333 28.6653 21.3333C27.6481 21.3333 26.6539 21.4987 25.6979 21.8193C25.526 20.4255 25.1207 19.0706 24.722 17.7533C24.5693 17.25 24.4179 16.7487 24.2825 16.2533C23.9212 14.9121 23.7633 13.8154 23.7851 12.8014C23.7985 12.222 23.8701 11.6706 23.998 11.1641C24.0673 10.8926 24.1894 10.6195 24.318 10.3294C24.4505 10.0332 24.5872 9.72656 24.6806 9.39193C24.7314 9.20736 24.7005 9.01009 24.596 8.84928C24.4912 8.6888 24.3226 8.58138 24.1324 8.55404C22.6285 8.33984 21.1246 9.20671 20.2207 10.0892C19.5058 10.7845 19.1412 11.652 18.7893 12.4906C18.7246 12.6432 18.6611 12.7959 18.5979 12.9401C18.5732 12.9948 18.524 13.0934 18.4632 13.2126C18.4485 13.1953 18.4332 13.1774 18.4179 13.1592C18.082 12.7721 17.5739 12.1859 17.5013 12.0859C16.1852 10.1019 16.2151 7.50326 17.6126 4.31055C17.6679 4.18066 17.7246 4.05078 17.7887 3.91862ZM13.316 33.1165C12.3499 33.1025 11.4599 32.694 10.8112 31.9668C8.18648 29.0254 8.65849 24.5781 10.208 21.6908C10.7086 20.7559 11.3792 19.8288 12.0273 18.9326C12.1959 18.6999 12.3665 18.4639 12.5358 18.2253C13.1171 19.3538 13.7132 20.3919 14.5927 21.4619L14.8551 21.7799C15.7907 22.9115 16.7587 24.082 17.2418 25.4408C17.998 27.5618 17.4892 30.4759 16.1087 31.9352C15.3951 32.6901 14.3619 33.1081 13.316 33.1165ZM36.6653 30.6667C36.6653 35.0781 33.0765 38.6667 28.6653 38.6667C24.7519 38.6667 21.3519 35.7575 20.7578 31.8981C20.6966 31.5013 20.6653 31.0872 20.6653 30.6667C20.6653 30.4701 20.6725 30.2747 20.6865 30.0807C20.7291 29.498 20.8352 28.9287 20.9993 28.3805C21.5999 26.3701 22.9778 24.6452 24.8593 23.6279C25.0299 23.5361 25.2047 23.4492 25.3831 23.3688C26.4244 22.9027 27.5286 22.6667 28.6653 22.6667C33.0765 22.6667 36.6653 26.2552 36.6653 30.6667ZM16.9586 2.58203C16.8287 2.83529 16.7054 3.08854 16.5839 3.34473C16.5146 3.48796 16.4524 3.63216 16.3671 3.82682C14.8219 7.35938 14.8287 10.4701 16.3925 12.8275C16.4759 12.9512 16.7194 13.236 17.4085 14.0319C17.6946 14.362 17.9547 14.6615 18.0345 14.7627C18.1233 14.8952 18.2588 14.9967 18.4212 15.0387C18.7132 15.1152 19.0218 14.986 19.1712 14.7214C19.2985 14.4954 19.7018 13.7308 19.8147 13.4827C19.8831 13.3258 19.9498 13.1667 20.0172 13.0075C20.332 12.2588 20.6292 11.5508 21.15 11.0446C21.6087 10.5973 22.3027 10.1234 23.0332 9.93652C22.9085 10.2188 22.7874 10.512 22.7047 10.8372C22.552 11.4414 22.4664 12.0928 22.4505 12.7734C22.4261 13.918 22.5986 15.1348 22.9938 16.6038C23.1341 17.1139 23.2887 17.626 23.4446 18.1406C23.8626 19.5228 24.2933 20.9473 24.4166 22.3548C24.3831 22.3714 24.3525 22.3913 24.3193 22.4085C24.2265 22.4574 24.1367 22.5094 24.0459 22.5605C23.944 22.6188 23.8421 22.6774 23.7425 22.7393C23.6546 22.7939 23.5686 22.8512 23.4827 22.9085C23.3854 22.9733 23.2894 23.0394 23.1946 23.1081C23.1113 23.1686 23.0299 23.2308 22.9485 23.2933C22.8567 23.3646 22.7659 23.4372 22.6767 23.512C22.5986 23.5775 22.5218 23.6439 22.4466 23.7119C22.36 23.79 22.2747 23.8695 22.1907 23.9499C22.1178 24.0199 22.0465 24.0915 21.9765 24.1634C21.8951 24.2467 21.8167 24.332 21.7386 24.418C21.6712 24.4925 21.6045 24.568 21.54 24.6452C21.4651 24.7341 21.3925 24.8245 21.3213 24.916C21.2594 24.9948 21.1979 25.0739 21.1393 25.1553C21.0699 25.2493 21.0039 25.346 20.9384 25.4427C20.8831 25.5247 20.8271 25.6068 20.7747 25.6908C20.7119 25.79 20.6526 25.8919 20.5934 25.9941C20.5439 26.0794 20.4938 26.1641 20.4472 26.2507C20.3912 26.3555 20.3385 26.4619 20.2867 26.5687C20.2438 26.6566 20.1998 26.7435 20.1598 26.8327C20.1106 26.9421 20.066 27.0534 20.0205 27.1647C19.984 27.2546 19.9459 27.3434 19.9127 27.4346C19.8701 27.5495 19.8333 27.666 19.7952 27.7819C19.7659 27.8727 19.7347 27.9619 19.7073 28.054C19.6718 28.1748 19.6425 28.2972 19.6119 28.4199C19.5892 28.5101 19.5647 28.5986 19.5446 28.6895C19.5166 28.8187 19.4954 28.9499 19.4726 29.0807C19.458 29.1667 19.4401 29.2513 19.4274 29.3379C19.4059 29.4854 19.3925 29.6348 19.3779 29.7832C19.3714 29.8548 19.3606 29.9261 19.3551 29.998C19.3405 30.2188 19.332 30.4421 19.332 30.6667C19.332 30.9674 19.3505 31.264 19.3779 31.5573C19.3811 31.5928 19.3798 31.6286 19.3831 31.6641C18.7213 32.0661 17.9993 32.3952 17.2444 32.6572C18.8333 30.7959 19.3886 27.4948 18.498 24.9941C17.9352 23.4141 16.8919 22.1514 15.8818 20.9307L15.622 20.6159C14.5826 19.3512 13.9511 18.0866 13.2194 16.6221C13.1126 16.4085 12.9 16.2686 12.6621 16.2546C12.428 16.2412 12.1959 16.3548 12.0647 16.5547C11.7194 17.082 11.344 17.6006 10.9459 18.1514C10.2711 19.0827 9.57385 20.0466 9.03121 21.0599C7.32515 24.2399 6.80725 29.112 9.54846 32.5228C8.07776 31.9108 6.69983 30.918 5.54586 29.4707C3.79911 27.2799 3.08134 24.6865 3.41272 21.764C4.15393 15.2285 10.1045 7.83594 15.6894 3.39518C16.2278 2.9668 16.6865 2.62077 17.0712 2.34277C17.0198 2.4554 16.9814 2.54069 16.9586 2.58203Z" fill="black"/>
<path d="M20.9033 18.9434C21.2119 19.9626 21.5032 20.9255 21.6666 21.8441L22.9791 21.612C22.8033 20.6152 22.4866 19.5687 22.18 18.5567C22.0179 18.0205 21.8567 17.4867 21.7119 16.9548C21.5638 16.4147 21.4472 15.9134 21.3545 15.4212L20.0446 15.6673C20.1432 16.1953 20.2685 16.7315 20.4254 17.3053C20.5732 17.848 20.7373 18.3945 20.9033 18.9434Z" fill="black"/>
<path d="M24.4701 35.8047L31.9987 28.276V30H33.332V26.6667C33.332 26.2979 33.0339 26 32.6654 26H29.332V27.3333H31.056L23.5273 34.862L24.4701 35.8047Z" fill="black"/>
<path d="M23.332 28.6667C23.332 29.7692 24.2292 30.6667 25.332 30.6667C26.4346 30.6667 27.332 29.7692 27.332 28.6667C27.332 27.5641 26.4346 26.6667 25.332 26.6667C24.2292 26.6667 23.332 27.5641 23.332 28.6667ZM25.9987 28.6667C25.9987 29.0345 25.6999 29.3334 25.332 29.3334C24.9639 29.3334 24.6654 29.0345 24.6654 28.6667C24.6654 28.2988 24.9639 28 25.332 28C25.6999 28 25.9987 28.2988 25.9987 28.6667Z" fill="black"/>
<path d="M30.6654 32C29.5625 32 28.6654 32.8975 28.6654 34C28.6654 35.1025 29.5625 36 30.6654 36C31.7679 36 32.6654 35.1025 32.6654 34C32.6654 32.8975 31.7679 32 30.6654 32ZM30.6654 34.6667C30.2972 34.6667 29.9987 34.3678 29.9987 34C29.9987 33.6322 30.2972 33.3333 30.6654 33.3333C31.0332 33.3333 31.3321 33.6322 31.3321 34C31.3321 34.3678 31.0332 34.6667 30.6654 34.6667Z" fill="black"/>
<path d="M28.6654 9.33334V10.6667H27.332V12H28.6654V13.3333H29.9987V12H31.332V10.6667H29.9987V9.33334H28.6654Z" fill="black"/>
<path d="M32.6654 4.66666V6.66666H30.6654V7.99999H32.6654V9.99999H33.9987V7.99999H35.9987V6.66666H33.9987V4.66666H32.6654Z" fill="black"/>
</svg>
