<svg width="40" height="40" viewBox="0 0 40 40" fill="none" xmlns="http://www.w3.org/2000/svg">
<g clip-path="url(#clip0)">
<path d="M39.4531 22.2522C39.5982 22.2522 39.7373 22.1946 39.8398 22.092C39.9424 21.9894 40 21.8503 40 21.7053V16.9397C39.9985 16.8247 39.9614 16.713 39.8939 16.6199C39.8264 16.5268 39.7317 16.4568 39.6228 16.4197L23.115 11.0253C23.0467 11.003 22.9747 10.9944 22.9031 10.9999C22.8315 11.0054 22.7617 11.025 22.6977 11.0575C22.6336 11.09 22.5766 11.1348 22.5299 11.1893C22.4831 11.2438 22.4476 11.307 22.4253 11.3753C22.3338 11.6555 22.188 11.9148 21.9962 12.1386C21.8044 12.3624 21.5704 12.5462 21.3076 12.6796C21.0448 12.813 20.7583 12.8933 20.4644 12.9159C20.1706 12.9386 19.8751 12.9031 19.595 12.8116C19.3149 12.72 19.0555 12.5742 18.8317 12.3824C18.6079 12.1907 18.4241 11.9567 18.2907 11.6939C18.1573 11.431 18.077 11.1445 18.0544 10.8507C18.0318 10.5568 18.0672 10.2614 18.1588 9.98125C18.1811 9.91298 18.1897 9.84099 18.1842 9.76938C18.1787 9.69777 18.1591 9.62796 18.1266 9.56391C18.0941 9.49987 18.0493 9.44285 17.9948 9.39612C17.9402 9.34939 17.877 9.31386 17.8087 9.29156L13.9622 8.03437C13.6535 7.93439 13.3259 7.90659 13.0047 7.95313C12.6835 7.99967 12.3773 8.1193 12.1097 8.30281L0.236563 16.4894C0.164529 16.5406 0.105572 16.608 0.0644719 16.6863C0.0233716 16.7645 0.00128421 16.8513 0 16.9397L0 29.9606C0.000579076 30.5199 0.223002 31.0561 0.618461 31.4515C1.01392 31.847 1.55011 32.0694 2.10938 32.07H7.77281C7.91785 32.07 8.05695 32.0124 8.15951 31.9098C8.26207 31.8073 8.31969 31.6682 8.31969 31.5231C8.31969 30.8012 8.60646 30.1089 9.11691 29.5985C9.62736 29.088 10.3197 28.8012 11.0416 28.8012C11.7634 28.8012 12.4558 29.088 12.9662 29.5985C13.4767 30.1089 13.7634 30.8012 13.7634 31.5231C13.7634 31.6682 13.8211 31.8073 13.9236 31.9098C14.0262 32.0124 14.1653 32.07 14.3103 32.07H37.8906C38.4499 32.0694 38.9861 31.847 39.3815 31.4515C39.777 31.0561 39.9994 30.5199 40 29.9606V26.7575C40 26.6125 39.9424 26.4734 39.8398 26.3708C39.7373 26.2682 39.5982 26.2106 39.4531 26.2106C38.9282 26.2106 38.4248 26.0021 38.0536 25.6309C37.6824 25.2597 37.4739 24.7563 37.4739 24.2314C37.4739 23.7065 37.6824 23.2031 38.0536 22.8319C38.4248 22.4607 38.9282 22.2522 39.4531 22.2522ZM12.7306 9.20343C12.8595 9.11509 13.0069 9.05751 13.1615 9.03514C13.3162 9.01276 13.4739 9.02618 13.6225 9.07437L16.9916 10.1753C16.8721 10.957 17.0341 11.7558 17.4486 12.4292C17.863 13.1027 18.5031 13.6072 19.2548 13.8528C20.0065 14.0984 20.8209 14.0692 21.5531 13.7704C22.2853 13.4717 22.8876 12.9227 23.2528 12.2212L36.0188 16.3928H2.30344L12.7306 9.20343ZM38.9062 27.2556V29.9606C38.9059 30.2299 38.7988 30.488 38.6084 30.6784C38.418 30.8688 38.1599 30.9759 37.8906 30.9762H14.8181C14.6867 30.0684 14.2326 29.2383 13.5391 28.6379C12.8455 28.0375 11.9589 27.7071 11.0416 27.7071C10.1242 27.7071 9.23763 28.0375 8.54407 28.6379C7.85051 29.2383 7.39644 30.0684 7.265 30.9762H2.10938C1.84012 30.9759 1.58198 30.8688 1.39159 30.6784C1.20119 30.488 1.09408 30.2299 1.09375 29.9606V17.4866H38.9062V21.2069C38.1977 21.3352 37.5567 21.7083 37.0951 22.261C36.6335 22.8137 36.3806 23.511 36.3806 24.2311C36.3806 24.9512 36.6335 25.6484 37.0951 26.2012C37.5567 26.7539 38.1977 27.127 38.9062 27.2553V27.2556Z" fill="black"/>
<path d="M18.8804 24.1053C18.3755 24.1053 17.882 24.2549 17.4623 24.5354C17.0425 24.8159 16.7153 25.2145 16.5221 25.6809C16.3289 26.1473 16.2784 26.6606 16.377 27.1557C16.4755 27.6508 16.7187 28.1056 17.0757 28.4625C17.4328 28.8194 17.8877 29.0624 18.3828 29.1608C18.878 29.2592 19.3912 29.2085 19.8576 29.0151C20.3239 28.8218 20.7224 28.4944 21.0027 28.0746C21.283 27.6547 21.4325 27.1611 21.4323 26.6563C21.4312 25.9799 21.162 25.3315 20.6836 24.8534C20.2052 24.3752 19.5568 24.1062 18.8804 24.1053V24.1053ZM18.8804 28.1157C18.592 28.1157 18.31 28.0303 18.0701 27.8701C17.8303 27.7099 17.6433 27.4822 17.5328 27.2158C17.4224 26.9493 17.3934 26.6561 17.4496 26.3732C17.5057 26.0903 17.6445 25.8304 17.8484 25.6264C18.0522 25.4224 18.312 25.2833 18.5949 25.2269C18.8777 25.1705 19.1709 25.1993 19.4375 25.3095C19.704 25.4197 19.9319 25.6065 20.0923 25.8462C20.2526 26.086 20.3383 26.3679 20.3385 26.6563C20.3384 27.0431 20.1847 27.414 19.9113 27.6876C19.638 27.9612 19.2672 28.1152 18.8804 28.1157V28.1157Z" fill="black"/>
<path d="M29.0588 20.0938C28.4531 20.0938 27.861 20.2734 27.3574 20.6099C26.8538 20.9464 26.4613 21.4247 26.2295 21.9843C25.9977 22.5439 25.937 23.1597 26.0552 23.7537C26.1734 24.3478 26.465 24.8935 26.8933 25.3218C27.3216 25.7501 27.8673 26.0417 28.4614 26.1599C29.0554 26.2781 29.6712 26.2174 30.2308 25.9856C30.7904 25.7538 31.2687 25.3613 31.6052 24.8577C31.9417 24.3541 32.1213 23.762 32.1213 23.1563C32.1202 22.3444 31.7972 21.5661 31.2231 20.992C30.649 20.4179 29.8707 20.0949 29.0588 20.0938ZM29.0588 25.1266C28.6695 25.1266 28.2888 25.0111 27.9651 24.7948C27.6413 24.5784 27.389 24.271 27.24 23.9112C27.0909 23.5515 27.052 23.1556 27.1279 22.7737C27.2039 22.3918 27.3914 22.041 27.6667 21.7657C27.9421 21.4904 28.2929 21.3029 28.6748 21.2269C29.0567 21.1509 29.4525 21.1899 29.8122 21.3389C30.172 21.4879 30.4795 21.7403 30.6958 22.064C30.9121 22.3878 31.0276 22.7684 31.0276 23.1578C31.0271 23.6799 30.8196 24.1805 30.4505 24.5498C30.0814 24.9191 29.5809 25.127 29.0588 25.1278V25.1266Z" fill="black"/>
<path d="M5.89563 20.0938C5.41199 20.0937 4.93922 20.2372 4.53709 20.5059C4.13496 20.7746 3.82154 21.1565 3.63646 21.6033C3.45138 22.0501 3.40295 22.5418 3.4973 23.0161C3.59166 23.4905 3.82455 23.9262 4.16653 24.2682C4.50852 24.6101 4.94423 24.843 5.41857 24.9374C5.89292 25.0317 6.38459 24.9833 6.83141 24.7982C7.27823 24.6131 7.66014 24.2997 7.92883 23.8976C8.19753 23.4955 8.34094 23.0227 8.34094 22.5391C8.3402 21.8908 8.08233 21.2692 7.62391 20.8108C7.16548 20.3524 6.54394 20.0945 5.89563 20.0938V20.0938ZM5.89563 23.8903C5.62832 23.8903 5.36701 23.811 5.14474 23.6625C4.92248 23.514 4.74925 23.3029 4.64695 23.056C4.54465 22.809 4.51789 22.5372 4.57004 22.2751C4.62219 22.0129 4.75091 21.7721 4.93993 21.583C5.12895 21.394 5.36978 21.2653 5.63195 21.2132C5.89413 21.161 6.16589 21.1878 6.41285 21.2901C6.65982 21.3924 6.8709 21.5656 7.01941 21.7879C7.16793 22.0101 7.24719 22.2714 7.24719 22.5387C7.24719 22.8973 7.10484 23.2412 6.85141 23.4949C6.59797 23.7486 6.2542 23.8912 5.89563 23.8916V23.8903Z" fill="black"/>
<path d="M12.9146 11.5359C12.5609 11.5359 12.2152 11.6408 11.9212 11.8373C11.6271 12.0338 11.3979 12.313 11.2626 12.6398C11.1272 12.9665 11.0918 13.326 11.1608 13.6729C11.2298 14.0198 11.4001 14.3384 11.6502 14.5884C11.9003 14.8385 12.2189 15.0088 12.5657 15.0778C12.9126 15.1468 13.2721 15.1114 13.5989 14.9761C13.9256 14.8407 14.2049 14.6115 14.4014 14.3175C14.5979 14.0234 14.7027 13.6777 14.7027 13.324C14.7022 12.85 14.5137 12.3954 14.1784 12.0602C13.8432 11.725 13.3887 11.5364 12.9146 11.5359ZM12.9146 14.0184C12.7773 14.0184 12.643 13.9777 12.5288 13.9014C12.4146 13.8251 12.3256 13.7167 12.2731 13.5898C12.2205 13.4629 12.2068 13.3233 12.2336 13.1886C12.2604 13.0539 12.3265 12.9302 12.4236 12.833C12.5207 12.7359 12.6444 12.6698 12.7791 12.643C12.9138 12.6162 13.0534 12.63 13.1803 12.6825C13.3072 12.7351 13.4156 12.8241 13.4919 12.9383C13.5682 13.0525 13.609 13.1867 13.609 13.324C13.6087 13.5081 13.5355 13.6846 13.4053 13.8148C13.2752 13.9449 13.0987 14.0182 12.9146 14.0184V14.0184Z" fill="black"/>
</g>
<defs>
<clipPath id="clip0">
<rect width="40" height="40" fill="white"/>
</clipPath>
</defs>
</svg>
