<svg width="31" height="31" viewBox="0 0 31 31" fill="none" xmlns="http://www.w3.org/2000/svg">
<rect width="31" height="31" fill="#969696"/>
<path d="M24 9.81865C24 8.32124 22.6788 7 21.1813 7H9.81865C8.32124 7 7 8.32124 7 9.81865V21.1813C7 22.6787 8.32124 24 9.81865 24H15.544V17.5699H13.4301V14.7513H15.544V13.6062C15.544 11.6684 16.9534 9.99481 18.715 9.99481H21.0052V12.8135H18.715C18.4508 12.8135 18.1865 13.0777 18.1865 13.6062V14.7513H21.0052V17.5699H18.1865V24H21.1813C22.6788 24 24 22.6787 24 21.1813V9.81865Z" fill="white"/>
</svg>
