<svg width="31" height="31" viewBox="0 0 31 31" fill="none" xmlns="http://www.w3.org/2000/svg">
<rect width="31" height="31" fill="#969696"/>
<path d="M21.5808 7H9.41923C8.04615 7 7 8.04615 7 9.41923V21.5808C7 22.9538 8.04615 24 9.41923 24H21.5808C22.9538 24 24 22.9538 24 21.5808V9.41923C24 8.04615 22.9538 7 21.5808 7ZM15.5 20.6C18.3115 20.6 20.6 18.3769 20.6 15.6962C20.6 15.2385 20.5346 14.7154 20.4038 14.3231H21.8423V21.2538C21.8423 21.5808 21.5808 21.9077 21.1885 21.9077H9.81154C9.48462 21.9077 9.15769 21.6462 9.15769 21.2538V14.2577H10.6615C10.5308 14.7154 10.4654 15.1731 10.4654 15.6308C10.4 18.3769 12.6885 20.6 15.5 20.6ZM15.5 18.6385C13.6692 18.6385 12.2308 17.2 12.2308 15.4346C12.2308 13.6692 13.6692 12.2308 15.5 12.2308C17.3308 12.2308 18.7692 13.6692 18.7692 15.4346C18.7692 17.2654 17.3308 18.6385 15.5 18.6385ZM21.7769 11.6423C21.7769 12.0346 21.45 12.3615 21.0577 12.3615H19.2269C18.8346 12.3615 18.5077 12.0346 18.5077 11.6423V9.87692C18.5077 9.48462 18.8346 9.15769 19.2269 9.15769H21.0577C21.45 9.15769 21.7769 9.48462 21.7769 9.87692V11.6423Z" fill="white"/>
</svg>
