<?xml version="1.0" encoding="iso-8859-1"?>
<!-- Generator: Adobe Illustrator 19.0.0, SVG Export Plug-In . SVG Version: 6.00 Build 0)  -->
<svg version="1.1" id="Capa_1" xmlns="http://www.w3.org/2000/svg" xmlns:xlink="http://www.w3.org/1999/xlink" x="0px" y="0px"
	 viewBox="0 0 378 378" style="enable-background:new 0 0 378 378;" xml:space="preserve">
<g>
	<g>
		<g>
			<path d="M311.1,196.469c2.198,0.904,4.504,1.355,6.811,1.355c2.336,0,4.673-0.464,6.894-1.39
				c4.414-1.842,7.846-5.293,9.665-9.716c3.753-9.132-0.622-19.615-9.753-23.369v-0.001c-9.135-3.752-19.614,0.623-23.37,9.753
				C297.594,182.233,301.969,192.715,311.1,196.469z M310.597,176.903c1.255-3.051,4.212-4.899,7.323-4.899
				c1,0,2.016,0.19,2.996,0.593v-0.001c4.033,1.658,5.964,6.287,4.307,10.318c-0.804,1.953-2.319,3.477-4.268,4.29
				c-1.947,0.813-4.097,0.819-6.051,0.016C310.872,185.562,308.941,180.934,310.597,176.903z"/>
			<path d="M126.5,113c14.612,0,26.5-11.888,26.5-26.5S141.112,60,126.5,60S100,71.888,100,86.5S111.888,113,126.5,113z M126.5,70
				c9.098,0,16.5,7.402,16.5,16.5s-7.402,16.5-16.5,16.5S110,95.598,110,86.5S117.402,70,126.5,70z"/>
			<path d="M191.389,0.015c-0.222-0.017-0.446-0.019-0.669-0.007C190.148,0.003,189.572,0,189,0C84.785,0,0,84.785,0,189
				s84.785,189,189,189s189-84.785,189-189C378,85.58,294.51,1.295,191.389,0.015z M196,10.135
				c44.641,1.724,85.137,19.875,115.608,48.563l-7.746,7.809C275.388,39.793,237.618,22.86,196,21.144V10.135z M196,127.232
				c6.253,1.176,11,6.677,11,13.267c0,6.59-4.747,12.092-11,13.268V127.232z M196,163.868c11.786-1.253,21.001-11.256,21.001-23.369
				c0-12.113-9.214-22.115-21-23.368v-23.15c1.88,1.645,4.055,3.012,6.491,4.013c5.776,2.375,12.127,2.356,17.889-0.047
				c5.761-2.405,10.241-6.91,12.614-12.683c2.374-5.775,2.358-12.128-0.047-17.889c-2.405-5.761-6.909-10.241-12.683-12.615
				c0,0,0-0.001-0.001-0.001c-8.457-3.476-17.799-1.611-24.264,4.02V31.153c38.879,1.703,74.158,17.528,100.819,42.452L196,175.233
				V163.868z M199.009,71.293c2.122-5.162,7.123-8.288,12.387-8.288c1.69,0,3.409,0.323,5.067,1.005
				c3.303,1.359,5.88,3.921,7.256,7.218c1.376,3.296,1.384,6.93,0.026,10.235c-1.358,3.303-3.921,5.88-7.217,7.256
				c-3.296,1.375-6.929,1.384-10.235,0.026C199.474,85.942,196.206,78.113,199.009,71.293z M286.707,122.009
				c6.82,2.805,10.088,10.634,7.285,17.453c-2.804,6.821-10.633,10.09-17.454,7.283c-3.303-1.358-5.88-3.921-7.256-7.217
				c-1.376-3.297-1.384-6.931-0.026-10.236c1.358-3.303,3.921-5.88,7.217-7.255c1.659-0.693,3.404-1.039,5.149-1.039
				c1.723,0,3.445,0.337,5.086,1.012L286.707,122.009z M187.663,190.735c1.961,1.944,5.126,1.933,7.071-0.028l65.726-66.253
				c-0.159,0.341-0.31,0.686-0.454,1.036c-2.374,5.775-2.358,12.128,0.047,17.889c2.405,5.761,6.91,10.242,12.683,12.615
				c11.921,4.904,25.605-0.808,30.505-12.73c4.899-11.919-0.812-25.603-12.731-30.503c0,0,0-0.001-0.001-0.001
				c-5.774-2.373-12.126-2.356-17.888,0.048c-0.368,0.154-0.732,0.316-1.089,0.487l32.374-32.634
				C330.613,108.969,347,147.104,347,189c0,87.121-70.879,158-158,158S31,276.121,31,189c0-86.122,69.254-156.371,155-157.972
				v87.199c-9.292,3.137-16,11.937-16,22.273s6.708,19.135,16,22.273V187c0,1.428,0.599,2.715,1.557,3.626
				C187.592,190.663,187.627,190.699,187.663,190.735z M186,129.28v22.44c-3.616-2.425-6-6.549-6-11.22S182.384,131.705,186,129.28z
				 M189,368c-98.701,0-179-80.299-179-179C10,91.299,88.675,11.629,186,10.024v11.002C94.741,22.631,21,97.365,21,189
				c0,92.636,75.364,168,168,168s168-75.364,168-168c0-44.667-17.519-85.315-46.05-115.438l7.746-7.809
				C349.232,97.872,368,141.288,368,189C368,287.701,287.701,368,189,368z"/>
			<path d="M207.46,322.565c3.277,1.346,6.67,1.984,10.01,1.984c10.395,0,20.273-6.176,24.466-16.371
				c5.537-13.472-0.917-28.937-14.388-34.475c-13.474-5.537-28.937,0.916-34.475,14.387
				C187.535,301.562,193.989,317.027,207.46,322.565z M202.321,291.893c2.605-6.336,8.743-10.174,15.204-10.174
				c2.076,0,4.185,0.396,6.22,1.233c8.371,3.443,12.381,13.053,8.941,21.424c-3.443,8.371-13.052,12.379-21.424,8.941
				C202.891,309.874,198.88,300.264,202.321,291.893z"/>
			<path d="M212.283,255.652c2.221,0.912,4.52,1.344,6.785,1.344c7.047,0,13.744-4.186,16.584-11.097
				c1.819-4.424,1.806-9.29-0.036-13.704c-1.842-4.414-5.293-7.846-9.716-9.664c0,0,0,0,0-0.001
				c-9.135-3.751-19.615,0.622-23.369,9.753C198.776,241.415,203.151,251.897,212.283,255.652z M211.78,236.086
				c1.255-3.051,4.211-4.9,7.323-4.9c0.999,0,2.015,0.191,2.995,0.594v-0.001c4.033,1.658,5.964,6.286,4.307,10.317
				c-1.658,4.033-6.288,5.962-10.318,4.307C212.054,244.745,210.123,240.117,211.78,236.086z"/>
			<path d="M130.467,263.941c-5.141-2.111-10.796-2.097-15.927,0.043c-5.128,2.141-9.118,6.151-11.231,11.293
				c-2.113,5.141-2.098,10.796,0.043,15.926c2.141,5.128,6.15,9.118,11.291,11.23c2.554,1.05,5.233,1.575,7.913,1.575
				c2.715,0,5.431-0.539,8.014-1.617c5.128-2.141,9.118-6.15,11.232-11.291C146.164,280.487,141.079,268.303,130.467,263.941z
				 M132.552,287.297c-1.099,2.671-3.171,4.754-5.835,5.865c-2.663,1.113-5.601,1.121-8.272,0.021
				c-2.671-1.098-4.754-3.169-5.865-5.833c-1.112-2.664-1.12-5.602-0.022-8.272c0,0,0.001,0,0.001-0.001
				c1.098-2.67,3.169-4.753,5.833-5.865c1.342-0.56,2.752-0.84,4.163-0.84c1.391,0,2.784,0.273,4.109,0.819
				c2.671,1.097,4.754,3.169,5.865,5.834C133.641,281.689,133.649,284.627,132.552,287.297z"/>
			<path d="M282.215,257.746c2.554,1.05,5.233,1.575,7.913,1.575c2.716,0,5.432-0.539,8.014-1.617
				c5.128-2.141,9.118-6.15,11.232-11.291c4.361-10.612-0.723-22.795-11.335-27.158c0,0,0,0,0-0.001
				c-10.612-4.36-22.795,0.723-27.159,11.335C266.519,241.201,271.603,253.385,282.215,257.746z M280.129,234.391
				c1.716-4.173,5.758-6.7,10.013-6.7c1.366,0,2.754,0.261,4.094,0.813v-0.001c5.513,2.266,8.155,8.595,5.889,14.107
				c-1.099,2.671-3.171,4.754-5.835,5.865c-2.663,1.111-5.601,1.121-8.272,0.021C280.505,246.231,277.863,239.903,280.129,234.391z"
				/>
			<path d="M157.803,192.95c-10.611-4.364-22.795,0.721-27.158,11.333c0,0,0,0-0.001,0c-4.361,10.612,0.723,22.796,11.335,27.159
				c2.581,1.061,5.254,1.563,7.885,1.563c8.19,0,15.972-4.866,19.272-12.898c2.114-5.141,2.1-10.797-0.042-15.927
				C166.953,199.052,162.944,195.062,157.803,192.95z M159.888,216.305c-1.097,2.671-3.169,4.754-5.833,5.866
				c-2.665,1.111-5.603,1.12-8.272,0.022c-5.513-2.266-8.155-8.595-5.888-14.107c1.097-2.671,3.169-4.754,5.835-5.865
				c2.663-1.111,5.6-1.121,8.272-0.021c2.671,1.098,4.754,3.169,5.865,5.833C160.979,210.697,160.987,213.635,159.888,216.305z"/>
			<path d="M109.5,176c12.958,0,23.5-10.542,23.5-23.5S122.458,129,109.5,129S86,139.542,86,152.5S96.542,176,109.5,176z M109.5,139
				c7.444,0,13.5,6.056,13.5,13.5c0,7.444-6.056,13.5-13.5,13.5c-7.444,0-13.5-6.056-13.5-13.5C96,145.056,102.056,139,109.5,139z"
				/>
			<path d="M83.264,221.438c-11.917-4.898-25.604,0.812-30.503,12.731c-0.001,0-0.001,0-0.001,0.001
				c-4.9,11.92,0.812,25.603,12.731,30.501c2.868,1.18,5.878,1.769,8.888,1.769c3.051,0,6.1-0.605,9.002-1.814
				c5.761-2.405,10.241-6.91,12.614-12.683c2.374-5.775,2.358-12.127-0.047-17.889C93.543,228.292,89.039,223.812,83.264,221.438z
				 M86.745,248.141c-1.358,3.303-3.921,5.88-7.217,7.256c-3.297,1.375-6.93,1.383-10.235,0.026
				c-3.303-1.358-5.88-3.921-7.256-7.217c-1.376-3.297-1.385-6.931-0.027-10.235c2.802-6.819,10.63-10.083,17.452-7.284
				C86.282,233.492,89.55,241.321,86.745,248.141z"/>
			<path d="M70.652,186.899c3.755-9.132-0.62-19.614-9.752-23.368c0,0,0,0,0-0.001c-9.134-3.752-19.615,0.622-23.369,9.753
				c-3.755,9.132,0.62,19.614,9.752,23.369c2.221,0.912,4.52,1.344,6.785,1.344C61.115,197.996,67.812,193.81,70.652,186.899z
				 M46.797,183.136c-0.814-1.948-0.82-4.098-0.017-6.05c1.255-3.051,4.211-4.9,7.323-4.9c0.999,0,2.015,0.191,2.995,0.595v-0.001
				c4.033,1.658,5.964,6.286,4.307,10.317c-1.657,4.033-6.288,5.963-10.318,4.307C49.134,186.6,47.61,185.085,46.797,183.136z"/>
			<path d="M239.283,213.468c2.221,0.913,4.52,1.346,6.785,1.346c7.047,0,13.743-4.186,16.585-11.097
				c3.753-9.132-0.622-19.615-9.753-23.369v-0.001c-9.135-3.751-19.615,0.623-23.37,9.753
				C225.777,199.232,230.152,209.714,239.283,213.468z M238.78,193.903c1.255-3.051,4.211-4.9,7.323-4.9
				c0.999,0,2.014,0.191,2.995,0.594v-0.001c4.033,1.658,5.964,6.287,4.307,10.318c-1.658,4.032-6.287,5.96-10.318,4.306
				C239.055,202.562,237.124,197.934,238.78,193.903z"/>
		</g>
	</g>
</g>
<g>
</g>
<g>
</g>
<g>
</g>
<g>
</g>
<g>
</g>
<g>
</g>
<g>
</g>
<g>
</g>
<g>
</g>
<g>
</g>
<g>
</g>
<g>
</g>
<g>
</g>
<g>
</g>
<g>
</g>
</svg>
