<?xml version="1.0" encoding="iso-8859-1"?>
<!-- Generator: Adobe Illustrator 19.0.0, SVG Export Plug-In . SVG Version: 6.00 Build 0)  -->
<svg version="1.1" id="Capa_1" xmlns="http://www.w3.org/2000/svg" xmlns:xlink="http://www.w3.org/1999/xlink" x="0px" y="0px"
	 viewBox="0 0 512 512" style="enable-background:new 0 0 512 512;" xml:space="preserve">
<g>
	<g>
		<path d="M452.267,119.467H59.733c-4.71,0-8.533,3.814-8.533,8.533v375.467c0,4.719,3.823,8.533,8.533,8.533h392.533
			c4.71,0,8.533-3.814,8.533-8.533V128C460.8,123.281,456.977,119.467,452.267,119.467z M443.733,494.933H68.267v-358.4h375.467
			V494.933z"/>
	</g>
</g>
<g>
	<g>
		<path d="M162.133,162.133c-23.526,0-42.667,19.14-42.667,42.667c0,23.526,19.14,42.667,42.667,42.667
			c23.526,0,42.667-19.14,42.667-42.667C204.8,181.274,185.66,162.133,162.133,162.133z M162.133,230.4
			c-14.114,0-25.6-11.486-25.6-25.6s11.486-25.6,25.6-25.6s25.6,11.486,25.6,25.6S176.247,230.4,162.133,230.4z"/>
	</g>
</g>
<g>
	<g>
		<path d="M349.867,162.133c-23.526,0-42.667,19.14-42.667,42.667c0,23.526,19.14,42.667,42.667,42.667
			c23.526,0,42.667-19.14,42.667-42.667C392.533,181.274,373.393,162.133,349.867,162.133z M349.867,230.4
			c-14.114,0-25.6-11.486-25.6-25.6s11.486-25.6,25.6-25.6c14.114,0,25.6,11.486,25.6,25.6S363.981,230.4,349.867,230.4z"/>
	</g>
</g>
<g>
	<g>
		<path d="M122.735,60.382c-3.191-1.34-6.869-0.589-9.301,1.852L53.7,121.967c-2.441,2.441-3.174,6.11-1.852,9.301
			c1.323,3.191,4.429,5.265,7.885,5.265h59.733c4.71,0,8.533-3.814,8.533-8.533V68.267C128,64.819,125.918,61.696,122.735,60.382z
			 M110.933,119.467H80.333l30.601-30.601V119.467z"/>
	</g>
</g>
<g>
	<g>
		<path d="M126.413,63.309L83.746,3.575c-2.159-3.021-6.007-4.301-9.549-3.166c-3.533,1.135-5.931,4.412-5.931,8.124v102.4
			c0,3.447,2.082,6.571,5.274,7.885c1.05,0.444,2.159,0.649,3.26,0.649c2.219,0,4.403-0.87,6.033-2.5L125.5,74.3
			C128.452,71.347,128.836,66.697,126.413,63.309z M85.333,90.334V35.157l22.989,32.188L85.333,90.334z"/>
	</g>
</g>
<g>
	<g>
		<path d="M458.3,121.967l-59.733-59.733c-2.449-2.44-6.11-3.191-9.301-1.852c-3.183,1.314-5.265,4.437-5.265,7.885V128
			c0,4.719,3.823,8.533,8.533,8.533h59.733c3.447,0,6.562-2.074,7.885-5.265C461.474,128.077,460.74,124.407,458.3,121.967z
			 M401.067,119.467V88.866l30.601,30.601H401.067z"/>
	</g>
</g>
<g>
	<g>
		<path d="M437.803,0.41c-3.524-1.135-7.39,0.154-9.549,3.166l-42.667,59.733c-2.423,3.388-2.039,8.038,0.913,10.991l42.667,42.667
			c1.63,1.63,3.814,2.5,6.033,2.5c1.101,0,2.21-0.205,3.268-0.649c3.183-1.314,5.265-4.437,5.265-7.885V8.533
			C443.733,4.821,441.335,1.545,437.803,0.41z M426.667,90.334l-22.989-22.989l22.989-32.188V90.334z"/>
	</g>
</g>
<g>
	<g>
		<path d="M392.533,59.733H119.467c-4.71,0-8.533,3.814-8.533,8.533V128c0,4.719,3.823,8.533,8.533,8.533h273.067
			c4.71,0,8.533-3.814,8.533-8.533V68.267C401.067,63.548,397.244,59.733,392.533,59.733z M384,119.467H128V76.8h256V119.467z"/>
	</g>
</g>
<g>
	<g>
		<path d="M442.786,4.625C441.327,1.783,438.4,0,435.2,0H76.8c-3.2,0-6.127,1.783-7.586,4.625c-1.468,2.85-1.212,6.263,0.64,8.866
			l42.667,59.733c1.604,2.244,4.19,3.575,6.946,3.575h273.067c2.756,0,5.342-1.331,6.946-3.575l42.667-59.733
			C443.998,10.889,444.245,7.475,442.786,4.625z M388.147,59.733H123.861L93.38,17.067h325.24L388.147,59.733z"/>
	</g>
</g>
<g>
	<g>
		<path d="M349.867,196.267c-4.71,0-8.533,3.814-8.533,8.533v93.867C341.333,345.719,303.053,384,256,384
			s-85.333-38.281-85.333-85.333V204.8c0-4.719-3.823-8.533-8.533-8.533c-4.71,0-8.533,3.814-8.533,8.533v93.867
			c0,56.465,45.935,102.4,102.4,102.4s102.4-45.935,102.4-102.4V204.8C358.4,200.081,354.577,196.267,349.867,196.267z"/>
	</g>
</g>
<g>
</g>
<g>
</g>
<g>
</g>
<g>
</g>
<g>
</g>
<g>
</g>
<g>
</g>
<g>
</g>
<g>
</g>
<g>
</g>
<g>
</g>
<g>
</g>
<g>
</g>
<g>
</g>
<g>
</g>
</svg>
