<svg width="500" height="500" viewBox="0 0 500 500" fill="none" xmlns="http://www.w3.org/2000/svg">
<path d="M171.983 477.845L164.171 430.97C163.958 429.715 164.057 428.427 164.46 427.22L171.616 405.751L165.468 375.001L156.249 375.001C154.177 375.001 152.19 374.177 150.726 372.712L135.101 357.087C133.635 355.622 132.812 353.635 132.812 351.563L132.812 125.001C132.812 122.929 133.635 120.942 135.1 119.477C136.565 118.012 138.552 117.188 140.624 117.188C163.616 117.188 164.062 87.1963 164.062 85.9385L164.062 75.1416L137.132 61.7197C135.827 61.0678 134.731 60.0637 133.968 58.8211C133.204 57.5785 132.804 56.1469 132.812 54.6885L132.812 39.0635C132.812 36.9915 133.635 35.0043 135.1 33.5392C136.565 32.0741 138.552 31.251 140.624 31.251L164.062 31.251L164.062 23.4385C164.062 21.3665 164.885 19.3793 166.35 17.9142C167.815 16.4491 169.802 15.626 171.874 15.626L203.124 15.626C205.196 15.626 207.183 16.4491 208.648 17.9142C210.113 19.3793 210.937 21.3665 210.937 23.4385L210.937 100.603L224.78 155.978C281.077 153.126 330.351 111.72 330.858 111.251C331.812 110.433 332.949 109.858 334.173 109.574C335.397 109.289 336.671 109.304 337.888 109.617C339.104 109.929 340.228 110.531 341.162 111.37C342.097 112.21 342.816 113.262 343.257 114.438L366.694 176.938C367.017 177.82 367.183 178.75 367.187 179.688C367.186 181.037 366.837 182.362 366.173 183.535C365.509 184.708 364.553 185.69 363.397 186.384C330.025 205.879 294.047 220.524 256.546 229.876L271.147 244.478C272.613 245.942 273.436 247.929 273.437 250.001L273.437 301.454L285.382 313.392L361.616 336.267C362.618 336.567 363.55 337.065 364.356 337.732C365.162 338.399 365.826 339.22 366.308 340.149C366.791 341.077 367.082 342.093 367.164 343.136C367.247 344.178 367.119 345.227 366.788 346.22L351.163 393.095C350.817 394.134 350.256 395.089 349.517 395.897C348.778 396.705 347.877 397.349 346.873 397.787C345.868 398.224 344.783 398.446 343.688 398.437C342.593 398.428 341.512 398.189 340.515 397.735L257.976 360.235L245.679 366.392C244.592 366.924 243.397 367.197 242.187 367.188L227.046 367.188L265.171 473.938C265.592 475.118 265.723 476.38 265.553 477.621C265.384 478.861 264.919 480.042 264.198 481.065C263.476 482.089 262.52 482.923 261.408 483.499C260.297 484.075 259.063 484.376 257.812 484.376L179.687 484.376C177.837 484.375 176.048 483.718 174.638 482.522C173.227 481.326 172.287 479.669 171.983 477.845V477.845ZM195.312 46.876L195.312 31.251L179.687 31.251L179.687 46.876L195.312 46.876ZM164.062 46.876L148.437 46.876L148.437 49.8604L164.062 57.6728L164.062 46.876ZM195.312 93.751L195.312 62.501L179.687 62.501L179.687 93.751L195.312 93.751ZM148.437 348.329L159.483 359.376L164.062 359.376L164.062 278.267L148.437 270.454L148.437 348.329ZM148.437 132.095L148.437 156.251L164.062 156.251L164.062 124.634C159.608 128.463 154.215 131.038 148.437 132.095V132.095ZM197.022 109.376L179.687 109.376L179.687 156.251L208.741 156.251L197.022 109.376ZM349.726 176.204L332.358 129.892C315.015 142.626 273.843 168.954 226.562 171.657L226.562 187.134C245.312 185.813 293.671 179.657 322.601 150.728L333.647 161.774C300.187 195.243 246.569 201.618 226.562 202.837L226.562 218.509C275.179 215.509 331.913 186.071 349.726 176.204V176.204ZM210.937 203.126L195.312 203.126L195.312 234.376L210.937 234.376L210.937 203.126ZM257.812 296.876L257.812 253.235L237.632 233.056C233.913 233.509 230.226 233.837 226.562 234.04L226.562 272.149C230.411 270.915 233.891 268.739 236.685 265.818C239.48 262.896 241.499 259.323 242.562 255.423L257.405 260.204C255.326 267.259 251.35 273.607 245.911 278.558C240.473 283.509 233.78 286.872 226.562 288.282L226.562 296.876L257.812 296.876ZM195.312 296.876L210.937 296.876L210.937 281.251L195.312 281.251L195.312 265.626L210.937 265.626L210.937 250.001L179.687 250.001L179.687 187.501L210.937 187.501L210.937 171.876L148.437 171.876L148.437 187.501L164.062 187.501L164.062 203.126L148.437 203.126L148.437 218.751L164.062 218.751L164.062 234.376L148.437 234.376L148.437 252.985L175.366 266.407C176.671 267.059 177.767 268.063 178.531 269.306C179.294 270.548 179.694 271.98 179.687 273.438L179.687 359.376L210.937 359.376L210.937 343.751L195.312 343.751L195.312 328.126L210.937 328.126L210.937 312.501L195.312 312.501L195.312 296.876ZM339.062 379.923L349.405 348.923L278.991 327.829C277.752 327.457 276.624 326.783 275.71 325.868L262.39 312.501L226.562 312.501L226.562 351.563L240.343 351.563L254.319 344.532C255.361 344.013 256.506 343.733 257.669 343.712C258.833 343.692 259.987 343.932 261.046 344.415L339.062 379.923ZM246.726 468.751L213.28 375.001L181.405 375.001L187.343 404.688C187.616 406.02 187.532 407.4 187.101 408.688L179.897 430.29L186.304 468.72L246.726 468.751Z" fill="black"/>
</svg>
