<svg width="500" height="500" viewBox="0 0 500 500" fill="none" xmlns="http://www.w3.org/2000/svg">
<path d="M58.2685 60.2352C61.2141 56.7098 65.5165 54.6862 70.0769 54.6862C71.0018 54.6862 71.9382 54.7702 72.8573 54.9384L139.594 67.0222C145.256 68.0485 149.842 72.0987 151.562 77.5927C153.278 83.0866 151.82 89.0271 147.749 93.0976L138.292 102.552L151.944 116.204L181.649 86.499C184.659 83.4867 188.828 81.8342 193.084 81.9908C197.337 82.1386 201.381 84.0637 204.179 87.2731L229.101 115.888C245.411 107.799 262.589 101.482 280.239 97.1419C283.226 96.4084 286.241 98.232 286.974 101.218C287.708 104.204 285.881 107.22 282.898 107.953C248.548 116.398 217.289 131.932 189.892 154.149L210.021 174.281C236.757 153.285 268.469 138.989 302.024 132.851C336.342 126.575 371.996 128.888 405.134 139.534C410.155 141.146 415.617 139.806 419.389 136.035C422.914 132.509 424.318 127.514 423.146 122.666C421.978 117.828 418.456 114.033 413.724 112.511C378.386 101.149 340.27 98.148 303.497 103.836C300.455 104.306 297.614 102.224 297.142 99.1859C296.672 96.1475 298.754 93.3034 301.795 92.8337C340.27 86.8846 380.154 90.0215 417.131 101.911C425.585 104.633 431.879 111.415 433.966 120.051C436.057 128.7 433.552 137.618 427.263 143.906C421.853 149.316 414.478 151.911 407.117 151.229L379.777 230.612C387.185 240.504 386.399 254.629 377.412 263.616L366.917 274.112L402.919 315.44C408.218 321.528 407.9 330.765 402.194 336.47L387.202 351.462L417.461 381.718C427.313 391.572 427.313 407.605 417.461 417.459C412.532 422.385 406.061 424.849 399.59 424.849C393.119 424.849 386.648 422.385 381.72 417.459L351.464 387.2L336.472 402.192C333.483 405.181 329.529 406.692 325.562 406.692C321.956 406.692 318.341 405.439 315.441 402.917L274.113 366.918L263.618 377.413C258.69 382.338 252.219 384.803 245.748 384.803C240.413 384.803 235.082 383.124 230.614 379.778L151.231 407.118C151.912 414.479 149.318 421.854 143.908 427.261C139.078 432.091 132.699 434.692 126.084 434.692C124.083 434.692 122.059 434.454 120.053 433.967C111.414 431.88 104.632 425.586 101.916 417.132C89.0666 377.169 86.4574 334.215 94.3751 292.91C98.6282 270.714 105.899 249.236 115.878 229.093L87.275 204.177C84.0627 201.382 82.1376 197.338 81.9926 193.082C81.8448 188.826 83.4886 184.66 86.498 181.648L116.203 151.942L102.554 138.293L93.0994 147.747C90.1799 150.667 86.3269 152.273 82.2448 152.273C74.7562 152.273 68.3548 146.938 67.0241 139.592L54.9374 72.8583C54.1227 68.3472 55.3346 63.7461 58.2685 60.2352V60.2352ZM218.971 121.202L195.783 94.5848C194.994 93.6803 193.899 93.1584 192.698 93.115C191.504 93.0744 190.37 93.5179 189.521 94.3674L159.816 124.073L181.98 146.24C193.522 136.812 205.924 128.427 218.971 121.202ZM263.685 155.59L333.643 235.906L341.67 227.878C349.487 220.062 361.188 218.453 370.61 223.034L396.291 148.475C351.783 135.521 305.187 138.345 263.685 155.59ZM369.54 255.745C375.052 250.231 375.052 241.261 369.54 235.749C364.026 230.235 355.056 230.235 349.545 235.749L340.972 244.322L359.59 265.695L369.54 255.745ZM394.32 328.599C395.906 327.013 395.995 324.444 394.523 322.754L253.077 160.362C240.776 166.343 229.002 173.64 217.95 182.21L379.331 343.591L394.32 328.599ZM255.747 369.538L265.697 359.588L244.321 340.97L235.748 349.543C230.237 355.057 230.237 364.027 235.748 369.538C241.263 375.05 250.233 375.053 255.747 369.538V369.538ZM148.474 396.289L223.035 370.611C218.455 361.189 220.064 349.488 227.877 341.671L235.908 333.641L155.589 263.683C138.344 305.182 135.518 351.775 148.474 396.289ZM112.512 413.722C114.035 418.454 117.832 421.976 122.668 423.145C127.516 424.316 132.511 422.913 136.036 419.39C139.808 415.615 141.148 410.153 139.536 405.132C128.878 371.968 126.574 336.288 132.868 301.944C139.014 268.415 153.304 236.738 174.283 210.022L154.156 189.896C103.908 252.031 87.9186 337.239 112.512 413.722V413.722ZM94.3693 189.519C93.5198 190.368 93.0762 191.499 93.1168 192.699C93.1574 193.9 93.6793 194.993 94.5867 195.784L121.196 218.96C128.406 205.94 136.782 193.552 146.239 181.978L124.074 159.814L94.3693 189.519ZM225.781 245.778C227.955 247.949 227.955 251.475 225.781 253.649C224.694 254.733 223.27 255.278 221.847 255.278C220.42 255.278 218.997 254.736 217.91 253.649L182.212 217.948C173.639 229 166.342 240.774 160.361 253.075L322.753 394.521C324.446 395.994 327.015 395.907 328.601 394.321L343.59 379.329L233.113 268.849C230.939 266.678 230.939 263.153 233.113 260.978C235.285 258.807 238.81 258.807 240.984 260.978L389.591 409.588C392.261 412.258 395.813 413.728 399.588 413.728C403.365 413.728 406.917 412.258 409.587 409.588C415.101 404.074 415.101 395.104 409.587 389.592L130.421 110.423L110.425 130.419L225.781 245.778ZM65.8934 70.8752L77.9801 137.609C78.4179 140.035 80.4995 141.14 82.2448 141.14C83.0305 141.14 84.1815 140.92 85.2281 139.876L139.878 85.2262C141.533 83.5708 141.171 81.6602 140.936 80.9151C140.704 80.1701 139.913 78.3958 137.611 77.9783L70.8742 65.8915C70.6075 65.8423 70.3379 65.8191 70.0769 65.8191C68.8274 65.8191 67.6358 66.3844 66.8124 67.3701C66.3341 67.9413 65.5832 69.156 65.8934 70.8752Z" fill="black" stroke="black" stroke-width="3"/>
</svg>
