<svg width="500" height="500" viewBox="0 0 500 500" fill="none" xmlns="http://www.w3.org/2000/svg">
<g clip-path="url(#clip0)">
<path d="M380.439 48.3128L357.09 71.6618C348.495 67.4019 337.771 68.8403 330.621 75.9901L242.054 164.557C237.196 169.415 234.978 175.923 235.388 182.294L219.556 198.126L202.237 180.806L252.412 130.631C255.272 127.771 255.272 123.134 252.412 120.273L224.734 92.5961C221.874 89.7359 217.236 89.7359 214.376 92.5961C211.516 95.4562 211.516 100.094 214.376 102.954L214.733 103.31L92.2415 225.801L91.8852 225.445C89.025 222.585 84.3874 222.585 81.5272 225.445C78.667 228.305 78.667 232.943 81.5272 235.803L109.204 263.48C112.065 266.341 116.702 266.341 119.562 263.48L169.737 213.306L187.057 230.625L48.3146 369.367C39.3549 378.327 39.3549 392.907 48.3146 401.866L92.5978 446.149C101.558 455.11 116.137 455.109 125.097 446.149L149.138 422.109C156.436 414.811 160.455 405.109 160.455 394.788L160.454 366.509L177.185 349.779L192.252 402.513C193.742 407.73 197.768 411.657 203.02 413.018C208.273 414.38 213.698 412.902 217.535 409.064L226.034 400.566C233.941 392.659 236.944 381.068 233.872 370.317L226.551 344.694L245.146 326.099L265.134 396.055C266.625 401.272 270.651 405.199 275.903 406.56C281.154 407.921 286.581 406.443 290.418 402.606L329.85 363.174C335.748 357.276 337.988 348.63 335.697 340.61L302.508 224.453L390.795 136.166C399.756 127.206 399.755 112.626 390.795 103.666L390.438 103.31L412.937 80.8114C418.845 74.9032 418.845 65.291 412.937 59.3828L401.866 48.3121C395.96 42.4053 386.347 42.4046 380.439 48.3128ZM180.095 158.665L225.091 113.669L236.875 125.452L191.879 170.448L180.095 158.665ZM114.383 247.943L102.6 236.16L169.738 169.022L181.521 180.806L114.383 247.943ZM191.879 191.164L209.198 208.484L197.415 220.267L180.095 202.948L191.879 191.164ZM120.631 429.9L114.74 435.792C111.491 439.041 106.205 439.04 102.957 435.792L58.6732 391.509C55.4243 388.26 55.425 382.974 58.6732 379.726L64.5649 373.834L120.631 429.9ZM219.789 374.342C221.4 379.982 219.825 386.061 215.677 390.209L207.179 398.708C207.103 398.784 206.975 398.911 206.696 398.84C206.418 398.767 206.367 398.594 206.338 398.49L189.036 337.93L204.864 322.103L219.789 374.342ZM221.949 328.583L216.712 310.253L235.308 291.658L240.545 309.987L221.949 328.583ZM321.613 344.635C322.444 347.543 321.632 350.678 319.494 352.816L280.062 392.248C279.986 392.324 279.858 392.452 279.579 392.38C279.3 392.309 279.251 392.134 279.221 392.03L247.157 279.807L262.985 263.979L286.627 346.727C287.739 350.617 291.793 352.869 295.682 351.758C296.922 351.403 297.994 350.751 298.846 349.899C300.665 348.08 301.47 345.353 300.713 342.703L274.835 252.129L290.663 236.301L321.613 344.635ZM380.439 114.025C383.688 117.274 383.688 122.561 380.44 125.809L153.131 353.118L147.239 347.226C143.99 343.977 143.991 338.691 147.239 335.442L152.776 329.905C155.637 327.045 155.637 322.407 152.776 319.547C149.916 316.687 145.279 316.687 142.418 319.547L136.881 325.084C127.921 334.045 127.921 348.624 136.881 357.584L145.807 366.509L145.807 394.788C145.807 401.196 143.311 407.221 138.781 411.751L130.989 419.542L74.9222 363.475L241.697 196.7L247.589 202.592C250.838 205.841 250.837 211.127 247.589 214.375L164.558 297.406C161.697 300.267 161.697 304.904 164.558 307.764C167.418 310.625 172.055 310.625 174.916 307.764L257.947 224.733C266.907 215.773 266.907 201.194 257.947 192.234L252.412 186.699C249.163 183.45 249.163 178.164 252.412 174.915L340.978 86.3488C344.227 83.0998 349.513 83.1005 352.761 86.3488L380.439 114.026L380.439 114.025ZM402.581 69.7415C402.777 69.9383 402.777 70.2573 402.581 70.4541L380.082 92.9524L368.299 81.1691L390.797 58.6708C390.994 58.474 391.313 58.474 391.51 58.6708L402.581 69.7415Z" fill="black"/>
<path d="M341.691 109.202L330.621 120.273C327.76 123.133 327.76 127.771 330.621 130.631C333.481 133.491 338.118 133.491 340.979 130.631L352.049 119.56C354.909 116.7 354.909 112.062 352.049 109.202C349.189 106.342 344.551 106.342 341.691 109.202Z" fill="black"/>
<path d="M308.479 142.415L297.408 153.485C294.548 156.345 294.548 160.983 297.408 163.843C300.268 166.704 304.906 166.704 307.766 163.843L318.837 152.773C321.697 149.912 321.697 145.275 318.837 142.415C315.976 139.554 311.339 139.554 308.479 142.415Z" fill="black"/>
</g>
<defs>
<clipPath id="clip0">
<rect width="500" height="500" fill="white"/>
</clipPath>
</defs>
</svg>
