<svg width="500" height="500" viewBox="0 0 500 500" fill="none" xmlns="http://www.w3.org/2000/svg">
<path d="M23.4375 242.187H99.7187L113.695 249.18C114.78 249.72 115.976 250.001 117.188 250H148.438C149.649 250.001 150.845 249.72 151.93 249.18L165.906 242.187H179.281C175.102 300.125 126.937 369.789 126.414 370.523C125.596 371.694 125.114 373.067 125.021 374.492C124.928 375.917 125.228 377.341 125.887 378.608C126.547 379.875 127.541 380.937 128.762 381.678C129.983 382.419 131.384 382.812 132.813 382.812L203.125 382.812C204.473 382.812 205.798 382.463 206.971 381.799C208.145 381.135 209.126 380.179 209.82 379.023C229.316 345.651 243.96 309.673 253.312 272.172L267.914 286.773C269.379 288.239 271.366 289.062 273.438 289.062L324.219 289.062L364.688 343.015L353.852 353.851C352.387 355.316 351.564 357.303 351.564 359.375C351.564 361.446 352.387 363.433 353.852 364.898L377.289 388.336C378.754 389.8 380.741 390.623 382.813 390.623C384.884 390.623 386.871 389.8 388.336 388.336L435.211 341.461C436.613 340.059 437.429 338.176 437.494 336.194C437.56 334.213 436.869 332.28 435.562 330.789L384.375 272.242L389.844 261.305C390.371 260.217 390.638 259.021 390.625 257.812V226.562H402.594L439.312 270.625C440.045 271.505 440.963 272.213 442 272.699C443.036 273.185 444.167 273.437 445.312 273.437L476.562 273.437C478.635 273.437 480.622 272.614 482.087 271.149C483.552 269.684 484.375 267.697 484.375 265.625V171.875C484.375 169.803 483.552 167.816 482.087 166.351C480.622 164.885 478.635 164.062 476.562 164.062H387.641L366.406 121.508C365.754 120.203 364.75 119.107 363.508 118.343C362.265 117.58 360.833 117.179 359.375 117.187H335.938C334.7 117.187 333.479 117.481 332.377 118.045C331.275 118.609 330.323 119.426 329.599 120.43C328.875 121.434 328.4 122.596 328.213 123.82C328.026 125.044 328.132 126.294 328.523 127.469L335.516 148.437L330.305 164.062H312.5V140.625C312.5 138.553 311.677 136.566 310.212 135.101C308.747 133.635 306.76 132.812 304.688 132.812L257.812 132.812C255.74 132.812 253.753 133.635 252.288 135.101C250.823 136.566 250 138.553 250 140.625V164.062H234.375V148.437H218.75V164.062H203.125V148.437H187.5V195.312H165.906L151.93 188.32C150.845 187.78 149.649 187.499 148.438 187.5L117.188 187.5C115.976 187.499 114.78 187.78 113.695 188.32L105.664 192.336L93.1641 161.156C92.5852 159.712 91.588 158.473 90.3005 157.599C89.013 156.725 87.4937 156.255 85.9375 156.25H70.3125C68.2405 156.25 66.2534 157.073 64.7882 158.538C63.3231 160.003 62.5 161.99 62.5 164.062L62.5 195.312H23.4375C21.3655 195.312 19.3784 196.135 17.9132 197.601C16.4481 199.066 15.625 201.053 15.625 203.125L15.625 234.375C15.625 236.447 16.4481 238.434 17.9132 239.899C19.3784 241.364 21.3655 242.187 23.4375 242.187ZM390.625 179.687H468.75V195.312H421.875V210.937H468.75V226.562H445.312V242.187H468.75V257.812L448.969 257.812L412.25 213.75C411.517 212.87 410.6 212.162 409.563 211.676C408.526 211.19 407.395 210.938 406.25 210.937H390.625V179.687ZM250 226.562L234.375 226.562V210.937L250 210.937V226.562ZM320.312 273.437L276.672 273.437L256.492 253.258C256.945 249.539 257.273 245.851 257.477 242.187H297.656C297.495 244.184 296.909 246.123 295.938 247.875C293.994 250.594 291.523 252.894 288.673 254.639C285.822 256.384 282.649 257.537 279.344 258.031L283.141 273.187C288.583 272.231 293.763 270.135 298.34 267.039C302.918 263.943 306.79 259.915 309.703 255.219C311.891 251.211 313.116 246.75 313.281 242.187H320.312V273.437ZM265.625 226.562V210.937H281.25V226.562H265.625ZM418.992 335.586L382.813 371.765L370.422 359.375L396.148 333.648L385.102 322.601L375.844 331.859L335.938 278.648V242.187H375V255.969L367.969 269.945C367.276 271.334 367.012 272.897 367.211 274.436C367.41 275.975 368.063 277.419 369.086 278.586L418.992 335.586ZM351.164 145.969L346.773 132.812H354.547L370.172 164.062H346.773L351.164 150.906C351.698 149.304 351.698 147.571 351.164 145.969ZM265.625 148.437L296.875 148.437V164.062H265.625V148.437ZM203.125 179.687L375 179.687V226.562H296.875V195.312L218.75 195.312L218.75 226.562H203.125L203.125 179.687ZM195.055 242.187H209.898C206.914 263.07 197.195 317.187 173.617 346.68L185.82 356.445C212.953 322.531 222.977 262.57 225.664 242.187L241.938 242.187C238.813 292.633 207.266 351.812 198.609 367.187H147.258C162.008 343.57 191.992 290.203 195.055 242.187ZM171.875 210.937H187.5V226.562H171.875V210.937ZM109.375 207.953L119.031 203.125H125V218.75H140.625V203.125H146.594L156.25 207.953V229.547L146.594 234.375H119.031L109.375 229.547V207.953ZM78.125 171.875H80.6484L90.0234 195.312H78.125L78.125 171.875ZM78.125 210.937H93.75V226.562H78.125V210.937ZM31.25 210.937H62.5V226.562H31.25L31.25 210.937Z" fill="black"/>
<path d="M328.125 195.312H312.5V210.938H328.125V195.312Z" fill="black"/>
<path d="M359.375 195.312H343.75V210.938H359.375V195.312Z" fill="black"/>
</svg>
