<svg width="500" height="500" viewBox="0 0 500 500" fill="none" xmlns="http://www.w3.org/2000/svg">
<path d="M350 443.333L350 423.333C350 419.797 351.405 416.406 353.905 413.905C356.406 411.405 359.797 410 363.333 410C365.102 410 366.797 409.298 368.047 408.047C369.298 406.797 370 405.101 370 403.333L370 390L383.333 390L383.333 416.667L396.667 416.667L396.667 343.333C396.667 341.565 395.964 339.87 394.714 338.619C393.464 337.369 391.768 336.667 390 336.667L370 336.667L370 323.333L383.333 323.333L383.333 310L370 310L370 296.667L383.333 296.667L383.333 283.333L370 283.333L370 270L383.333 270L383.333 256.667L370 256.667L370 243.333L383.333 243.333L383.333 230L370 230L370 216.667L390 216.667C391.768 216.667 393.464 215.964 394.714 214.714C395.964 213.464 396.667 211.768 396.667 210L396.667 170C396.667 168.232 395.964 166.536 394.714 165.286C393.464 164.036 391.768 163.333 390 163.333L370 163.333L370 150L383.333 150L383.333 136.667L370 136.667L370 123.333L383.333 123.333L383.333 110L363.887 110L343.333 106.573L330 104.36L330 86.0933L334.713 81.38C335.964 80.13 336.666 78.4346 336.667 76.6667L336.667 56.6667C336.667 54.8986 335.964 53.2029 334.714 51.9526C333.464 50.7024 331.768 50 330 50L290 50C288.232 50 286.536 50.7024 285.286 51.9526C284.036 53.2029 283.333 54.8986 283.333 56.6667L283.333 76.6667C283.334 78.4346 284.036 80.13 285.287 81.38L290 86.0933L290 103.867L216.113 110C214.443 110.139 212.886 110.902 211.753 112.138C210.62 113.373 209.994 114.99 210 116.667L210 130C210.001 131.399 210.442 132.761 211.26 133.896C212.079 135.03 213.233 135.878 214.56 136.32L250 148.14L250 150L231.573 150L218.24 143.333L188.427 143.333L170 152.547L170 187.453L188.427 196.667L218.24 196.667L231.573 190L250 190L250 193.907L228.06 215.847L118.58 183.613C117.674 183.342 116.72 183.267 115.782 183.393C114.845 183.519 113.944 183.843 113.142 184.344C112.339 184.845 111.652 185.51 111.126 186.297C110.601 187.084 110.249 187.973 110.093 188.907L103.427 228.907C103.363 229.268 103.332 229.633 103.333 230C103.334 231.44 103.802 232.842 104.666 233.994C105.53 235.147 106.744 235.989 108.127 236.393L171.013 254.8L170.053 262.5C170.015 262.776 169.998 263.055 170 263.333C170 265.101 170.702 266.797 171.953 268.047C173.203 269.298 174.899 270 176.667 270L222.667 270L232.453 271.96L200.987 283.753C199.716 284.231 198.622 285.085 197.85 286.201C197.078 287.318 196.665 288.643 196.667 290L196.667 330C196.667 331.768 197.37 333.463 198.62 334.713L215.713 351.807L128.627 370.14C127.129 370.455 125.786 371.276 124.822 372.464C123.858 373.653 123.333 375.137 123.333 376.667L123.333 443.333C123.333 445.101 124.036 446.797 125.286 448.047C126.536 449.298 128.232 450 130 450C160.26 450 214.487 424.9 229.267 417.78L272.967 448.88C274.063 449.608 275.35 449.998 276.667 450L343.333 450C345.102 450 346.797 449.298 348.047 448.047C349.298 446.797 350 445.101 350 443.333ZM303.333 103.333L303.333 83.3333C303.333 81.5654 302.63 79.8699 301.38 78.62L296.667 73.9067L296.667 63.3333L323.333 63.3333L323.333 73.9067L318.62 78.62C317.37 79.8699 316.667 81.5654 316.667 83.3333L316.667 103.333L303.333 103.333ZM383.333 350L383.333 376.667L370 376.667L370 350L383.333 350ZM356.667 276.667L356.667 323.333L343.333 323.333L343.333 276.667L356.667 276.667ZM383.333 176.667L383.333 203.333L370 203.333L370 176.667L383.333 176.667ZM296.667 116.667L322.78 116.667L330 117.873L330 210L290 210L290 117.233L296.667 116.667ZM191.573 183.333L183.333 179.213L183.333 160.787L191.573 156.667L215.093 156.667L228.427 163.333L250 163.333L250 176.667L228.427 176.667L215.093 183.333L191.573 183.333ZM117.573 225.26L122 198.56L176 214.767L172.667 241.433L117.573 225.26ZM184.24 256.667L189.007 218.547L202.467 222.393L197.553 256.667L184.24 256.667ZM224.66 256.8C224.223 256.711 223.779 256.667 223.333 256.667L211.02 256.667L215.387 226.093L228.167 229.747C229.31 230.073 230.521 230.087 231.672 229.789C232.823 229.49 233.873 228.888 234.713 228.047L250 212.76L250 261.867L224.66 256.8ZM210 327.24L210 294.62L250 279.62L250 292.953C239.885 299.042 228.451 302.603 216.667 303.333C215.46 303.333 214.275 303.661 213.24 304.281C212.205 304.901 211.357 305.791 210.788 306.855C210.218 307.919 209.948 309.118 210.007 310.323C210.065 311.529 210.45 312.696 211.12 313.7C215.72 319.911 221.543 325.115 228.229 328.993C234.915 332.87 242.324 335.339 250 336.247L250 344.593L231.293 348.527L210 327.24ZM250 308L250 322.86C243.083 321.816 236.528 319.087 230.913 314.913C237.506 313.303 243.905 310.985 250 308ZM136.667 436.253L136.667 382.08L150 379.267L150 410L163.333 410L163.333 376.46L176.667 373.653L176.667 396.667L190 396.667L190 370.847L203.333 368.04L203.333 390L216.667 390L216.667 365.233L250 358.213L250 416.667L234 404.667C233.013 403.918 231.838 403.459 230.605 403.342C229.372 403.224 228.131 403.452 227.02 404C226.407 404.34 169.72 432.52 136.667 436.253ZM290 436.667L290 283.333C290 281.565 290.702 279.87 291.953 278.619C293.203 277.369 294.899 276.667 296.667 276.667C298.435 276.667 300.131 277.369 301.381 278.619C302.631 279.87 303.333 281.565 303.333 283.333L303.333 436.667L290 436.667ZM316.667 436.667L316.667 283.333C316.667 278.029 314.56 272.942 310.809 269.191C307.058 265.44 301.971 263.333 296.667 263.333C291.362 263.333 286.275 265.44 282.525 269.191C278.774 272.942 276.667 278.029 276.667 283.333L276.667 435.333L263.333 426.447L263.333 143.333C263.332 141.935 262.891 140.572 262.073 139.438C261.255 138.303 260.1 137.455 258.773 137.013L223.333 125.193L223.333 122.8L276.667 118.34L276.667 250L343.333 250L343.333 120.087L356.667 122.313L356.667 263.333L330 263.333L330 336.667L356.667 336.667L356.667 397.513C350.946 398.997 345.879 402.337 342.26 407.01C338.641 411.682 336.674 417.423 336.667 423.333L336.667 436.667L316.667 436.667ZM303.333 236.667L290 236.667L290 223.333L303.333 223.333L303.333 236.667ZM316.667 223.333L330 223.333L330 236.667L316.667 236.667L316.667 223.333Z" fill="black"/>
<path d="M316.667 143.333L316.667 130L303.333 130L303.333 143.333L316.667 143.333Z" fill="black"/>
<path d="M316.667 170L316.667 156.667L303.333 156.667L303.333 170L316.667 170Z" fill="black"/>
<path d="M316.667 196.667L316.667 183.333L303.333 183.333L303.333 196.667L316.667 196.667Z" fill="black"/>
<path d="M343.333 390L343.333 376.667L330 376.667L330 390L343.333 390Z" fill="black"/>
<path d="M343.333 363.333L343.333 350L330 350L330 363.333L343.333 363.333Z" fill="black"/>
</svg>
