<svg width="500" height="500" viewBox="0 0 500 500" fill="none" xmlns="http://www.w3.org/2000/svg">
<g clip-path="url(#clip0)">
<path d="M23.4375 164.062L54.6875 164.062C56.7595 164.062 58.7466 164.886 60.2118 166.351C61.6769 167.816 62.5 169.803 62.5 171.875L62.5 195.312L82.0312 195.312L84.8281 191.594C82.732 187.385 80.365 183.316 77.7422 179.414C70.4687 168.062 62.9453 156.32 67.2422 145.5C68.8084 142.208 71.1591 139.35 74.0879 137.179C77.0166 135.008 80.4337 133.589 84.0391 133.047C88.259 131.558 92.7966 131.208 97.195 132.031C101.593 132.854 105.697 134.821 109.094 137.734C112.256 141.304 114.664 145.477 116.171 150.002C117.679 154.526 118.256 159.309 117.867 164.062L143.609 164.062L151.422 148.437L148.437 148.437C146.365 148.437 144.378 147.614 142.913 146.149C141.448 144.684 140.625 142.697 140.625 140.625L140.625 93.75C140.625 91.678 141.448 89.6908 142.913 88.2257C144.378 86.7606 146.365 85.9375 148.438 85.9375L179.688 85.9375C180.328 85.9375 180.965 86.0163 181.586 86.1718L244.086 101.797C245.775 102.22 247.275 103.196 248.346 104.569C249.418 105.942 250 107.633 250 109.375L250 140.625C250 142.697 249.177 144.684 247.712 146.149C246.247 147.614 244.259 148.437 242.187 148.437L223.578 148.437L231.391 164.062L265.625 164.062L265.625 148.437L281.25 148.437L281.25 164.062L296.875 164.062L296.875 148.437L312.5 148.437L312.5 164.062L328.125 164.062L328.125 148.437L343.75 148.437L343.75 164.062L359.375 164.062L359.375 148.437L375 148.437L375 164.062L390.625 164.062L390.625 148.437L406.25 148.437L406.25 164.062L414.062 164.062C415.514 164.062 416.938 164.466 418.173 165.229C419.408 165.992 420.406 167.084 421.055 168.383L434.516 195.312L476.562 195.312C478.634 195.312 480.622 196.136 482.087 197.601C483.552 199.066 484.375 201.053 484.375 203.125L484.375 234.375C484.375 236.447 483.552 238.434 482.087 239.899C480.622 241.364 478.634 242.187 476.562 242.187L437.5 242.187L437.5 250C437.5 252.072 436.677 254.059 435.212 255.524C433.747 256.989 431.759 257.812 429.687 257.812L420.68 257.812L413.953 298.156C413.65 299.98 412.709 301.638 411.299 302.834C409.888 304.03 408.099 304.687 406.25 304.687L382.812 304.687C380.963 304.687 379.174 304.03 377.764 302.834C376.353 301.638 375.413 299.98 375.109 298.156L368.383 257.812L340.117 257.812L328.125 275.781L328.125 398.437C328.125 400.509 327.302 402.497 325.837 403.962C324.372 405.427 322.384 406.25 320.312 406.25L273.437 406.25C271.365 406.25 269.378 405.427 267.913 403.962C266.448 402.497 265.625 400.509 265.625 398.437L265.625 281.25L261.047 281.25L239.898 302.398C238.434 303.864 236.447 304.687 234.375 304.687L183.445 304.687L127.656 374.422L138.336 385.102C139.801 386.567 140.623 388.553 140.623 390.625C140.623 392.697 139.801 394.683 138.336 396.148L114.898 419.586C113.433 421.051 111.447 421.873 109.375 421.873C107.303 421.873 105.317 421.051 103.852 419.586L49.164 364.898C47.6994 363.433 46.8766 361.447 46.8766 359.375C46.8766 357.303 47.6994 355.317 49.164 353.852L113.953 289.062L103.852 278.961C102.386 277.496 101.563 275.509 101.562 273.437L101.562 257.812L62.5 257.812L62.5 312.5C62.5 314.572 61.6769 316.559 60.2118 318.024C58.7466 319.489 56.7595 320.312 54.6875 320.312L23.4375 320.312C21.3655 320.312 19.3783 319.489 17.9132 318.024C16.4481 316.559 15.625 314.572 15.625 312.5L15.625 171.875C15.625 169.803 16.4481 167.816 17.9132 166.351C19.3783 164.886 21.3655 164.062 23.4375 164.062ZM437.5 226.562L468.75 226.562L468.75 210.937L437.5 210.937L437.5 226.562ZM389.43 289.062L399.633 289.062L404.836 257.812L384.227 257.812L389.43 289.062ZM343.75 242.187L359.375 242.187L359.375 210.937L375 210.937L375 242.187L390.625 242.187L390.625 210.937L406.25 210.937L406.25 242.187L421.875 242.187L421.875 204.969L409.234 179.687L406.25 179.687L406.25 195.312L390.625 195.312L390.625 179.687L375 179.687L375 195.312L359.375 195.312L359.375 179.687L343.75 179.687L343.75 242.187ZM234.375 132.812L234.375 115.477L187.5 103.758L187.5 117.187L171.875 117.187L171.875 101.562L156.25 101.562L156.25 132.812L234.375 132.812ZM161.078 164.062L213.922 164.062L206.109 148.437L168.891 148.437L161.078 164.062ZM281.25 390.625L312.5 390.625L312.5 375L281.25 375L281.25 390.625ZM281.25 359.375L312.5 359.375L312.5 343.75L296.875 343.75L296.875 328.125L312.5 328.125L312.5 312.5L296.875 312.5L296.875 296.875L312.5 296.875L312.5 281.25L281.25 281.25L281.25 359.375ZM265.625 218.75L265.625 265.625L316.133 265.625L328.125 247.656L328.125 179.687L281.25 179.687L281.25 195.312L265.625 195.312L265.625 179.687L250 179.687L250 195.312L234.375 195.312L234.375 179.687L218.75 179.687L218.75 195.312L203.125 195.312L203.125 179.687L113.281 179.687L101.562 195.312L148.437 195.312C149.433 195.313 150.419 195.501 151.344 195.867L189 210.937L257.812 210.937C259.884 210.937 261.872 211.761 263.337 213.226C264.802 214.691 265.625 216.678 265.625 218.75ZM234.375 226.562L234.375 242.187L250 242.187L250 226.562L234.375 226.562ZM187.5 289.062L231.141 289.062L250 270.203L250 257.812L210.156 257.812C210.318 259.809 210.904 261.748 211.875 263.5C213.819 266.219 216.289 268.519 219.14 270.264C221.991 272.009 225.163 273.163 228.469 273.656L224.672 288.812C219.229 287.856 214.049 285.761 209.472 282.664C204.895 279.568 201.023 275.54 198.109 270.844C195.922 266.836 194.697 262.375 194.531 257.812L187.5 257.812L187.5 289.062ZM65.7344 359.375L109.375 403.016L121.766 390.625L96.039 364.898L107.086 353.852L116.539 363.305L171.875 294.133L171.875 257.812L117.187 257.812L117.187 270.203L130.523 283.539C131.988 285.004 132.811 286.991 132.811 289.062C132.811 291.134 131.988 293.121 130.523 294.586L65.7344 359.375ZM93.75 242.187L218.75 242.187L218.75 226.562L187.5 226.562C186.505 226.562 185.519 226.374 184.594 226.008L156.25 214.664L156.25 226.562L140.625 226.562L140.625 210.937L125 210.937L125 226.562L109.375 226.562L109.375 210.937L93.75 210.937L93.75 242.187ZM90.8984 170.992C92.375 173.297 93.8203 175.57 95.1641 177.812L101.914 168.805C102.578 163.203 102.508 152.945 98.4375 149.156C96.4219 147.266 92.8672 146.953 87.8359 148.203C83.8516 149.203 82.0781 150.477 81.7578 151.266C80.4219 154.641 86.9765 164.844 90.8984 170.992ZM62.5 242.187L78.125 242.187L78.125 210.937L62.5 210.937L62.5 242.187ZM31.25 304.687L46.875 304.687L46.875 179.687L31.25 179.687L31.25 304.687Z" fill="black"/>
<path d="M324.18 265.204L331.993 278.736L318.461 286.548L310.649 273.016L324.18 265.204Z" fill="black"/>
<path d="M297.117 280.829L304.929 294.361L291.398 302.173L283.585 288.641L297.117 280.829Z" fill="black"/>
</g>
<defs>
<clipPath id="clip0">
<rect width="500" height="500" fill="white" transform="matrix(-1 0 0 1 500 0)"/>
</clipPath>
</defs>
</svg>
